<svg width="64" height="64" viewBox="0 0 64 64" fill="none" xmlns="http://www.w3.org/2000/svg">
  <circle cx="32" cy="32" r="30" fill="#8494B3" stroke="white" stroke-opacity="0.3" stroke-width="1.5"/>
  <circle cx="32" cy="32" r="30" fill="url(#g)"/>
  <path d="M16 36C18 28 22 22 28 18C32 16 38 16 42 18C46 20 48 24 48 28C46 26 42 24 38 24C34 24 30 26 28 30L16 36Z" fill="white" fill-opacity="0.9"/>
  <path d="M16 36C20 34 26 32 30 34C34 36 36 40 36 44C32 42 28 40 24 40C20 40 18 38 16 36Z" fill="white" fill-opacity="0.6"/>
  <path d="M28 30C32 26 38 24 44 26C42 28 38 30 34 32C30 34 28 34 28 30Z" fill="white" fill-opacity="0.4"/>
  <defs>
    <radialGradient id="g" cx="0.3" cy="0.3" r="0.8">
      <stop offset="0%" stop-color="white" stop-opacity="0.15"/>
      <stop offset="100%" stop-color="white" stop-opacity="0.05"/>
    </radialGradient>
  </defs>
</svg>
